<svg width="47" height="47" viewBox="0 0 47 47" fill="none" xmlns="http://www.w3.org/2000/svg">
<path d="M23.5 43.0834C34.3156 43.0834 43.0833 34.3156 43.0833 23.5C43.0833 12.6844 34.3156 3.91669 23.5 3.91669C12.6844 3.91669 3.91667 12.6844 3.91667 23.5C3.91667 34.3156 12.6844 43.0834 23.5 43.0834Z" stroke="#EAEFF3" stroke-width="2" stroke-linecap="round" stroke-linejoin="round"/>
<path d="M31.3333 15.6667H19.5833C18.5446 15.6667 17.5484 16.0793 16.8138 16.8139C16.0793 17.5484 15.6667 18.5446 15.6667 19.5834C15.6667 20.6221 16.0793 21.6183 16.8138 22.3529C17.5484 23.0874 18.5446 23.5 19.5833 23.5H27.4167C28.4554 23.5 29.4517 23.9127 30.1862 24.6472C30.9207 25.3817 31.3333 26.3779 31.3333 27.4167C31.3333 28.4555 30.9207 29.4517 30.1862 30.1862C29.4517 30.9207 28.4554 31.3334 27.4167 31.3334H15.6667" stroke="#EAEFF3" stroke-width="2" stroke-linecap="round" stroke-linejoin="round"/>
<path d="M23.5 35.25V11.75" stroke="#EAEFF3" stroke-width="2" stroke-linecap="round" stroke-linejoin="round"/>
</svg>
